<svg xmlns="http://www.w3.org/2000/svg" viewBox="0 0 24 24" fill="currentColor"><path d="M12.186 24h-.007c-3.581-.024-6.334-1.205-8.184-3.509C2.35 18.44 1.5 15.586 1.472 12.01v-.017c.03-3.579.879-6.43 2.525-8.482C5.845 1.205 8.6.024 12.18 0h.014c2.746.02 5.043.725 6.826 2.098 1.677 1.29 2.858 3.13 3.509 5.467l-2.04.569c-1.104-3.96-3.898-5.984-8.304-6.015-2.91.022-5.11.936-6.54 2.717C4.307 6.504 3.616 8.914 3.589 12c.027 3.086.718 5.496 2.057 7.164 1.43 1.783 3.631 2.698 6.54 2.717 2.623-.02 4.358-.631 5.8-2.045 1.647-1.613 1.618-3.593 1.09-4.798-.31-.71-.873-1.3-1.634-1.75-.192 1.352-.622 2.446-1.284 3.272-.886 1.102-2.14 1.704-3.73 1.79-1.202.065-2.361-.218-3.259-.801-1.063-.689-1.685-1.74-1.752-2.96-.065-1.17.408-2.133 1.37-2.788.812-.553 1.9-.834 3.233-.834.929 0 1.775.127 2.522.38.214-.89.326-1.9.326-3.022 0-.383-.015-.755-.044-1.116-2.705-.074-4.63.538-5.728 1.822-.91 1.065-1.381 2.559-1.4 4.438l-2.118-.024c.024-2.378.663-4.32 1.9-5.773 1.503-1.764 3.91-2.608 7.158-2.51.17-1.357.596-2.442 1.278-3.252.93-1.104 2.283-1.664 4.027-1.664.34 0 .694.022 1.058.066l-.214 2.106c-.27-.028-.527-.042-.77-.042-1.146 0-2.005.334-2.556.993-.468.56-.758 1.354-.868 2.38 1.09.26 2.077.66 2.94 1.193 1.211.748 2.066 1.694 2.541 2.81.738 1.732.75 4.407-1.37 6.482-1.803 1.764-4.102 2.652-7.317 2.676zm-.353-7.677c-1.921 0-3.098.662-3.098 1.74 0 .96.776 1.63 2.139 1.557 1.477-.08 2.564-.973 2.886-2.37-.56-.208-1.194-.345-1.927-.345v-.582z"/></svg>
