<svg xmlns="http://www.w3.org/2000/svg" viewBox="0 0 24 24" fill="currentColor"><path d="M22 7.42c-.09 1.95-1.45 4.62-4.08 8.02C15.15 19.15 12.77 21 10.8 21c-1.22 0-2.25-1.13-3.09-3.38-.56-2.06-1.12-4.12-1.68-6.18-.62-2.25-1.29-3.38-2-3.38-.16 0-.7.33-1.64.98L1.5 7.86c1.03-.91 2.05-1.82 3.05-2.73 1.38-1.19 2.41-1.82 3.1-1.88 1.63-.16 2.63 .96 3 3.35.4 2.58.68 4.19.84 4.82.47 2.13.98 3.19 1.54 3.19.43 0 1.09-.69 1.96-2.07.87-1.38 1.34-2.43 1.4-3.15.12-1.19-.34-1.79-1.4-1.79-.5 0-1.01.11-1.54.34 1.02-3.35 2.98-4.98 5.86-4.88 2.14.06 3.15 1.45 3.03 4.16z"/></svg>
